/* XPM */
static char *_f947c6f16e349b2b66a83eeb445c32fMXmWdjLoLtVfKCBr[] = {
/* columns rows colors chars-per-pixel */
"64 64 12 1 ",
"  c None",
". c black",
"X c #393918",
"o c #4A4A5A",
"O c #7B4141",
"+ c #943929",
"@ c #E66A4A",
"# c #DE9473",
"$ c #8B8B94",
"% c #F6BD94",
"& c #C5C5D5",
"* c white",
/* pixels */
"                XXXXXXXXXXXXXXXXXXXXXXXXXXXXXXXX                ",
"                XXXXXXXXXXXXXXXXXXXXXXXXXXXXXXXX                ",
"                XXXXXXXXXXXXXXXXXXXXXXXXXXXXXXXX                ",
"                XXXXXXXXXXXXXXXXXXXXXXXXXXXXXXXX                ",
"            XXXXoooo$$$$$$$$$$$$$$$$$$$$$$$$ooooXXXX            ",
"            XXXXoooo$$$$$$$$$$$$$$$$$$$$$$$$ooooXXXX            ",
"            XXXXoooo$$$$$$$$$$$$$$$$$$$$$$$$ooooXXXX            ",
"            XXXXoooo$$$$$$$$$$$$$$$$$$$$$$$$ooooXXXX            ",
"        ....oooooooooooooooooooooooooooooooooooooooo....        ",
"        ....oooooooooooooooooooooooooooooooooooooooo....        ",
"        ....oooooooooooooooooooooooooooooooooooooooo....        ",
"        ....oooooooooooooooooooooooooooooooooooooooo....        ",
"    ....####....XXXXXXXXXXXXXXXXXXXXXXXXXXXXXXXX....####....    ",
"    ....####....XXXXXXXXXXXXXXXXXXXXXXXXXXXXXXXX....####....    ",
"    ....####....XXXXXXXXXXXXXXXXXXXXXXXXXXXXXXXX....####....    ",
"    ....####....XXXXXXXXXXXXXXXXXXXXXXXXXXXXXXXX....####....    ",
"    ....%%%%........$$$$$$$$$$$$$$$$$$$$$$$$........%%%%....    ",
"    ....%%%%........$$$$$$$$$$$$$$$$$$$$$$$$........%%%%....    ",
"    ....%%%%........$$$$$$$$$$$$$$$$$$$$$$$$........%%%%....    ",
"    ....%%%%........$$$$$$$$$$$$$$$$$$$$$$$$........%%%%....    ",
"        ........####oooo....oooooooo....oooo####........        ",
"        ........####oooo....oooooooo....oooo####........        ",
"        ........####oooo....oooooooo....oooo####........        ",
"        ........####oooo....oooooooo....oooo####........        ",
"            ....%%%%####....########....####%%%%....            ",
"            ....%%%%####....########....####%%%%....            ",
"            ....%%%%####....########....####%%%%....            ",
"            ....%%%%####....########....####%%%%....            ",
"            ....####%%%%%%%%%%%%%%%%%%%%%%%%####....            ",
"            ....####%%%%%%%%%%%%%%%%%%%%%%%%####....            ",
"            ....####%%%%%%%%%%%%%%%%%%%%%%%%####....            ",
"            ....####%%%%%%%%%%%%%%%%%%%%%%%%####....            ",
"        ....$$$$ooooOOOO################OOOOoooo$$$$....        ",
"        ....$$$$ooooOOOO################OOOOoooo$$$$....        ",
"        ....$$$$ooooOOOO################OOOOoooo$$$$....        ",
"        ....$$$$ooooOOOO################OOOOoooo$$$$....        ",
"    ....oooo$$$$....oooo................oooo....$$$$oooo....    ",
"    ....oooo$$$$....oooo................oooo....$$$$oooo....    ",
"    ....oooo$$$$....oooo................oooo....$$$$oooo....    ",
"    ....oooo$$$$....oooo................oooo....$$$$oooo....    ",
"    oooo****oooo....$$$$@@@@++++++++@@@@$$$$....oooo****oooo    ",
"    oooo****oooo....$$$$@@@@++++++++@@@@$$$$....oooo****oooo    ",
"    oooo****oooo....$$$$@@@@++++++++@@@@$$$$....oooo****oooo    ",
"    oooo****oooo....$$$$@@@@++++++++@@@@$$$$....oooo****oooo    ",
"    oooo&&&&&&&&XXXX$$$$@@@@@@@@@@@@++++$$$$XXXX&&&&&&&&oooo    ",
"    oooo&&&&&&&&XXXX$$$$@@@@@@@@@@@@++++$$$$XXXX&&&&&&&&oooo    ",
"    oooo&&&&&&&&XXXX$$$$@@@@@@@@@@@@++++$$$$XXXX&&&&&&&&oooo    ",
"    oooo&&&&&&&&XXXX$$$$@@@@@@@@@@@@++++$$$$XXXX&&&&&&&&oooo    ",
"        ............oooo@@@@++++++++@@@@oooo............        ",
"        ............oooo@@@@++++++++@@@@oooo............        ",
"        ............oooo@@@@++++++++@@@@oooo............        ",
"        ............oooo@@@@++++++++@@@@oooo............        ",
"            XXXXoooo........oooooooo........ooooXXXX            ",
"            XXXXoooo........oooooooo........ooooXXXX            ",
"            XXXXoooo........oooooooo........ooooXXXX            ",
"            XXXXoooo........oooooooo........ooooXXXX            ",
"            ........oooooooo........oooooooo........            ",
"            ........oooooooo........oooooooo........            ",
"            ........oooooooo........oooooooo........            ",
"            ........oooooooo........oooooooo........            ",
"                ........                ........                ",
"                ........                ........                ",
"                ........                ........                ",
"                ........                ........                "
};
