/* XPM */
static char *cb21d4baff254ddfc1ba9117c05b2821w9GNMGqxAiZjGkED[] = {
/* columns rows colors chars-per-pixel */
"64 64 13 1 ",
"  c None",
". c black",
"X c #393918",
"o c #742525",
"O c #4A4A5A",
"+ c #7B4141",
"@ c #943929",
"# c #E66A4A",
"$ c #DE9473",
"% c #8B8B94",
"& c #F6BD94",
"* c #C5C5D5",
"= c white",
/* pixels */
"                                                                ",
"                                                                ",
"                                                                ",
"                                                                ",
"                OOOOOOOO....            ........                ",
"                OOOOOOOO....            ........                ",
"                OOOOOOOO....            ........                ",
"                OOOOOOOO....            ........                ",
"            ....****====OOOO....    ....&&&&$$$$....            ",
"            ....****====OOOO....    ....&&&&$$$$....            ",
"            ....****====OOOO....    ....&&&&$$$$....            ",
"            ....****====OOOO....    ....&&&&$$$$....            ",
"    ....XXXX....****OOOO%%%%%%%%............................    ",
"    ....XXXX....****OOOO%%%%%%%%............................    ",
"    ....XXXX....****OOOO%%%%%%%%............................    ",
"    ....XXXX....****OOOO%%%%%%%%............................    ",
"........OOOO....XXXX........OOOO$$$$&&&&&&&&&&&&&&&&$$$$........",
"........OOOO....XXXX........OOOO$$$$&&&&&&&&&&&&&&&&$$$$........",
"........OOOO....XXXX........OOOO$$$$&&&&&&&&&&&&&&&&$$$$........",
"........OOOO....XXXX........OOOO$$$$&&&&&&&&&&&&&&&&$$$$........",
"....OOOO....OOOO%%%%%%%%OOOO++++&&&&&&&&....&&&&....&&&&$$$$....",
"....OOOO....OOOO%%%%%%%%OOOO++++&&&&&&&&....&&&&....&&&&$$$$....",
"....OOOO....OOOO%%%%%%%%OOOO++++&&&&&&&&....&&&&....&&&&$$$$....",
"....OOOO....OOOO%%%%%%%%OOOO++++&&&&&&&&....&&&&....&&&&$$$$....",
"    OOOO....############....$$$$&&&&&&&&&&&&....&&&&&&&&$$$$....",
"    OOOO....############....$$$$&&&&&&&&&&&&....&&&&&&&&$$$$....",
"    OOOO....############....$$$$&&&&&&&&&&&&....&&&&&&&&$$$$....",
"    OOOO....############....$$$$&&&&&&&&&&&&....&&&&&&&&$$$$....",
"    ....OOOO@@@@####@@@@....$$$$oooo&&&&....&&&&....&&&&$$$$....",
"    ....OOOO@@@@####@@@@....$$$$oooo&&&&....&&&&....&&&&$$$$....",
"    ....OOOO@@@@####@@@@....$$$$oooo&&&&....&&&&....&&&&$$$$....",
"    ....OOOO@@@@####@@@@....$$$$oooo&&&&....&&&&....&&&&$$$$....",
"    ....OOOO@@@@####@@@@....$$$$oooo&&&&&&&&&&&&&&&&&&&&$$$$....",
"    ....OOOO@@@@####@@@@....$$$$oooo&&&&&&&&&&&&&&&&&&&&$$$$....",
"    ....OOOO@@@@####@@@@....$$$$oooo&&&&&&&&&&&&&&&&&&&&$$$$....",
"    ....OOOO@@@@####@@@@....$$$$oooo&&&&&&&&&&&&&&&&&&&&$$$$....",
"    OOOO....####@@@@####....$$$$oooo&&&&....&&&&....&&&&$$$$....",
"    OOOO....####@@@@####....$$$$oooo&&&&....&&&&....&&&&$$$$....",
"    OOOO....####@@@@####....$$$$oooo&&&&....&&&&....&&&&$$$$....",
"    OOOO....####@@@@####....$$$$oooo&&&&....&&&&....&&&&$$$$....",
"....OOOO....OOOO%%%%%%%%OOOO++++&&&&&&&&&&&&....&&&&&&&&$$$$....",
"....OOOO....OOOO%%%%%%%%OOOO++++&&&&&&&&&&&&....&&&&&&&&$$$$....",
"....OOOO....OOOO%%%%%%%%OOOO++++&&&&&&&&&&&&....&&&&&&&&$$$$....",
"....OOOO....OOOO%%%%%%%%OOOO++++&&&&&&&&&&&&....&&&&&&&&$$$$....",
"........OOOO....XXXX........OOOO$$$$&&&&....&&&&....$$$$........",
"........OOOO....XXXX........OOOO$$$$&&&&....&&&&....$$$$........",
"........OOOO....XXXX........OOOO$$$$&&&&....&&&&....$$$$........",
"........OOOO....XXXX........OOOO$$$$&&&&....&&&&....$$$$........",
"    ....XXXX....****OOOO%%%%%%%%............................    ",
"    ....XXXX....****OOOO%%%%%%%%............................    ",
"    ....XXXX....****OOOO%%%%%%%%............................    ",
"    ....XXXX....****OOOO%%%%%%%%............................    ",
"            ....****====OOOO....    ....&&&&$$$$....            ",
"            ....****====OOOO....    ....&&&&$$$$....            ",
"            ....****====OOOO....    ....&&&&$$$$....            ",
"            ....****====OOOO....    ....&&&&$$$$....            ",
"                OOOOOOOO....            ........                ",
"                OOOOOOOO....            ........                ",
"                OOOOOOOO....            ........                ",
"                OOOOOOOO....            ........                ",
"                                                                ",
"                                                                ",
"                                                                ",
"                                                                "
};
