/* XPM */
static char *af0da8bfc4cb428baa8f1fd76b8f045fc9v13m0D8qexpDvn[] = {
/* columns rows colors chars-per-pixel */
"16 16 13 1 ",
"  c None",
". c black",
"X c #393918",
"o c #742525",
"O c #4A4A5A",
"+ c #7B4141",
"@ c #943929",
"# c #E66A4A",
"$ c #DE9473",
"% c #8B8B94",
"& c #F6BD94",
"* c #C5C5D5",
"= c white",
/* pixels */
"                ",
"    OO.   ..    ",
"   .*=O. .&$.   ",
" .X.*O%%....... ",
"..O.X..O$&&&&$..",
".O.O%%O+&&.&.&$.",
" O.###.$&&&.&&$.",
" .O@#@.$o&.&.&$.",
" .O@#@.$o&&&&&$.",
" O.#@#.$o&.&.&$.",
".O.O%%O+&&&.&&$.",
"..O.X..O$&.&.$..",
" .X.*O%%....... ",
"   .*=O. .&$.   ",
"    OO.   ..    ",
"                "
};
