/* XPM */
static char *_0a389938ba244b1b14f386403f18653oSHVaqgFFBhT1mkw[] = {
/* columns rows colors chars-per-pixel */
"64 64 8 1 ",
"  c None",
". c black",
"X c #521000",
"o c #4A4A5A",
"O c #943929",
"+ c #E66A4A",
"@ c #C5C5D5",
"# c white",
/* pixels */
"                                                                ",
"                                                                ",
"                                                                ",
"                                                                ",
"                                                                ",
"                                                                ",
"                                                                ",
"                                                                ",
"                                                                ",
"                                                                ",
"                                                                ",
"                                                                ",
"                                                                ",
"                                                                ",
"                                                                ",
"                                                                ",
"                                                                ",
"                                                                ",
"                                                                ",
"                                                                ",
"                        XXXXXXXXXXXXXXXX                        ",
"                        XXXXXXXXXXXXXXXX                        ",
"                        XXXXXXXXXXXXXXXX                        ",
"                        XXXXXXXXXXXXXXXX                        ",
"                    XXXX++++++++++++++++XXXX                    ",
"                    XXXX++++++++++++++++XXXX                    ",
"                    XXXX++++++++++++++++XXXX                    ",
"                    XXXX++++++++++++++++XXXX                    ",
"                XXXX++++####++++OOOOOOOO++++XXXX                ",
"                XXXX++++####++++OOOOOOOO++++XXXX                ",
"                XXXX++++####++++OOOOOOOO++++XXXX                ",
"                XXXX++++####++++OOOOOOOO++++XXXX                ",
"            XXXX++++OOOO++++++++OOOOOOOOOOOO++++XXXX            ",
"            XXXX++++OOOO++++++++OOOOOOOOOOOO++++XXXX            ",
"            XXXX++++OOOO++++++++OOOOOOOOOOOO++++XXXX            ",
"            XXXX++++OOOO++++++++OOOOOOOOOOOO++++XXXX            ",
"            ....++++OOOOOOOO........OOOOOOOO++++....            ",
"            ....++++OOOOOOOO........OOOOOOOO++++....            ",
"            ....++++OOOOOOOO........OOOOOOOO++++....            ",
"            ....++++OOOOOOOO........OOOOOOOO++++....            ",
"            oooo....OOOO....@@@@@@@@....OOOO....oooo            ",
"            oooo....OOOO....@@@@@@@@....OOOO....oooo            ",
"            oooo....OOOO....@@@@@@@@....OOOO....oooo            ",
"            oooo....OOOO....@@@@@@@@....OOOO....oooo            ",
"            oooo####........@@@@@@@@........@@@@oooo            ",
"            oooo####........@@@@@@@@........@@@@oooo            ",
"            oooo####........@@@@@@@@........@@@@oooo            ",
"            oooo####........@@@@@@@@........@@@@oooo            ",
"                oooo########........########oooo                ",
"                oooo########........########oooo                ",
"                oooo########........########oooo                ",
"                oooo########........########oooo                ",
"                    oooo@@@@########@@@@oooo                    ",
"                    oooo@@@@########@@@@oooo                    ",
"                    oooo@@@@########@@@@oooo                    ",
"                    oooo@@@@########@@@@oooo                    ",
"                        oooooooooooooooo                        ",
"                        oooooooooooooooo                        ",
"                        oooooooooooooooo                        ",
"                        oooooooooooooooo                        ",
"                                                                ",
"                                                                ",
"                                                                ",
"                                                                "
};
