/* XPM */
static char *fd1f4c32e0824260e8dc3b1430e2ee16D8Yx4WsCmdmsI2co[] = {
/* columns rows colors chars-per-pixel */
"64 64 13 1 ",
"  c None",
". c black",
"X c #6A2929",
"o c #39397B",
"O c #7B4141",
"+ c #C53939",
"@ c #AC7B41",
"# c #FF6A4A",
"$ c #DE9473",
"% c #73A4C5",
"& c #FFC594",
"* c #B4B4D5",
"= c #EEEEFF",
/* pixels */
"                XXXXXXXXXXXXXXXXXXXXXXXXXXXXXXXX                ",
"                XXXXXXXXXXXXXXXXXXXXXXXXXXXXXXXX                ",
"                XXXXXXXXXXXXXXXXXXXXXXXXXXXXXXXX                ",
"                XXXXXXXXXXXXXXXXXXXXXXXXXXXXXXXX                ",
"            XXXX++++########################++++XXXX            ",
"            XXXX++++########################++++XXXX            ",
"            XXXX++++########################++++XXXX            ",
"            XXXX++++########################++++XXXX            ",
"        ....++++++++++++++++========++++++++++++++++....        ",
"        ....++++++++++++++++========++++++++++++++++....        ",
"        ....++++++++++++++++========++++++++++++++++....        ",
"        ....++++++++++++++++========++++++++++++++++....        ",
"    ....@@@@XXXX****++++****++++++++****++++****XXXX@@@@....    ",
"    ....@@@@XXXX****++++****++++++++****++++****XXXX@@@@....    ",
"    ....@@@@XXXX****++++****++++++++****++++****XXXX@@@@....    ",
"    ....@@@@XXXX****++++****++++++++****++++****XXXX@@@@....    ",
"    ....$$$$....oooo========================oooo....$$$$....    ",
"    ....$$$$....oooo========================oooo....$$$$....    ",
"    ....$$$$....oooo========================oooo....$$$$....    ",
"    ....$$$$....oooo========================oooo....$$$$....    ",
"        ....OOOO$$$$oooooooooooooooooooooooo$$$$OOOO....        ",
"        ....OOOO$$$$oooooooooooooooooooooooo$$$$OOOO....        ",
"        ....OOOO$$$$oooooooooooooooooooooooo$$$$OOOO....        ",
"        ....OOOO$$$$oooooooooooooooooooooooo$$$$OOOO....        ",
"        ....$$$$$$$$&&&&....&&&&&&&&....&&&&$$$$$$$$....        ",
"        ....$$$$$$$$&&&&....&&&&&&&&....&&&&$$$$$$$$....        ",
"        ....$$$$$$$$&&&&....&&&&&&&&....&&&&$$$$$$$$....        ",
"        ....$$$$$$$$&&&&....&&&&&&&&....&&&&$$$$$$$$....        ",
"            OOOO$$$$$$$$OOOO&&&&&&&&OOOO$$$$$$$$OOOO            ",
"            OOOO$$$$$$$$OOOO&&&&&&&&OOOO$$$$$$$$OOOO            ",
"            OOOO$$$$$$$$OOOO&&&&&&&&OOOO$$$$$$$$OOOO            ",
"            OOOO$$$$$$$$OOOO&&&&&&&&OOOO$$$$$$$$OOOO            ",
"        ....oooo....OOOO$$$$$$$$$$$$$$$$OOOO....oooo....        ",
"        ....oooo....OOOO$$$$$$$$$$$$$$$$OOOO....oooo....        ",
"        ....oooo....OOOO$$$$$$$$$$$$$$$$OOOO....oooo....        ",
"        ....oooo....OOOO$$$$$$$$$$$$$$$$OOOO....oooo....        ",
"    OOOO&&&&oooooooo++++................++++oooooooo&&&&OOOO    ",
"    OOOO&&&&oooooooo++++................++++oooooooo&&&&OOOO    ",
"    OOOO&&&&oooooooo++++................++++oooooooo&&&&OOOO    ",
"    OOOO&&&&oooooooo++++................++++oooooooo&&&&OOOO    ",
"    OOOO$$$$$$$$oooo++++++++********++++++++oooo$$$$$$$$OOOO    ",
"    OOOO$$$$$$$$oooo++++++++********++++++++oooo$$$$$$$$OOOO    ",
"    OOOO$$$$$$$$oooo++++++++********++++++++oooo$$$$$$$$OOOO    ",
"    OOOO$$$$$$$$oooo++++++++********++++++++oooo$$$$$$$$OOOO    ",
"        OOOO........++++####========####++++........OOOO        ",
"        OOOO........++++####========####++++........OOOO        ",
"        OOOO........++++####========####++++........OOOO        ",
"        OOOO........++++####========####++++........OOOO        ",
"            oooo%%%%oooo................oooo%%%%oooo            ",
"            oooo%%%%oooo................oooo%%%%oooo            ",
"            oooo%%%%oooo................oooo%%%%oooo            ",
"            oooo%%%%oooo................oooo%%%%oooo            ",
"            ........%%%%%%%%........%%%%%%%%........            ",
"            ........%%%%%%%%........%%%%%%%%........            ",
"            ........%%%%%%%%........%%%%%%%%........            ",
"            ........%%%%%%%%........%%%%%%%%........            ",
"            ....oooooooo....        ....oooooooo....            ",
"            ....oooooooo....        ....oooooooo....            ",
"            ....oooooooo....        ....oooooooo....            ",
"            ....oooooooo....        ....oooooooo....            ",
"                ........                ........                ",
"                ........                ........                ",
"                ........                ........                ",
"                ........                ........                "
};
