/* XPM */
static char *_fefb3821d404fa882d88426a2ae21aeq1zRttrQCJyOzkDw[] = {
/* columns rows colors chars-per-pixel */
"64 64 14 1 ",
"  c None",
". c black",
"X c #183858",
"o c #402060",
"O c #505060",
"+ c #D51010",
"@ c #703888",
"# c #5A7BD5",
"$ c #A060B0",
"% c #309888",
"& c #7BBDFF",
"* c #60C8C0",
"= c #B8C8C8",
"- c GhostWhite",
/* pixels */
"                    oooooooo$$$$oooo                            ",
"                    oooooooo$$$$oooo                            ",
"                    oooooooo$$$$oooo                            ",
"                    oooooooo$$$$oooo                            ",
"                oooo$$$$$$$$oooooooo                            ",
"                oooo$$$$$$$$oooooooo                            ",
"                oooo$$$$$$$$oooooooo                            ",
"                oooo$$$$$$$$oooooooo                            ",
"                $$$$$$$$$$$$@@@@@@@@$$$$oooo                    ",
"                $$$$$$$$$$$$@@@@@@@@$$$$oooo                    ",
"                $$$$$$$$$$$$@@@@@@@@$$$$oooo                    ",
"                $$$$$$$$$$$$@@@@@@@@$$$$oooo                    ",
"            $$$$@@@@$$$$XXXX********XXXX$$$$oooo                ",
"            $$$$@@@@$$$$XXXX********XXXX$$$$oooo                ",
"            $$$$@@@@$$$$XXXX********XXXX$$$$oooo                ",
"            $$$$@@@@$$$$XXXX********XXXX$$$$oooo                ",
"            @@@@@@@@@@@@****%%%%%%%%****@@@@@@@@oooo            ",
"            @@@@@@@@@@@@****%%%%%%%%****@@@@@@@@oooo            ",
"            @@@@@@@@@@@@****%%%%%%%%****@@@@@@@@oooo            ",
"            @@@@@@@@@@@@****%%%%%%%%****@@@@@@@@oooo            ",
"        OOOOoooo$$$$....****........****....$$$$ooooOOOO        ",
"        OOOOoooo$$$$....****........****....$$$$ooooOOOO        ",
"        OOOOoooo$$$$....****........****....$$$$ooooOOOO        ",
"        OOOOoooo$$$$....****........****....$$$$ooooOOOO        ",
"    ----OOOO$$$$XXXX....****........****....XXXX$$$$OOOO----    ",
"    ----OOOO$$$$XXXX....****........****....XXXX$$$$OOOO----    ",
"    ----OOOO$$$$XXXX....****........****....XXXX$$$$OOOO----    ",
"    ----OOOO$$$$XXXX....****........****....XXXX$$$$OOOO----    ",
"    ====oooo$$$$%%%%****%%%%********%%%%****%%%%$$$$oooo====    ",
"    ====oooo$$$$%%%%****%%%%********%%%%****%%%%$$$$oooo====    ",
"    ====oooo$$$$%%%%****%%%%********%%%%****%%%%$$$$oooo====    ",
"    ====oooo$$$$%%%%****%%%%********%%%%****%%%%$$$$oooo====    ",
"    ........oooo@@@@....****%%%%%%%%****....@@@@oooo........    ",
"    ........oooo@@@@....****%%%%%%%%****....@@@@oooo........    ",
"    ........oooo@@@@....****%%%%%%%%****....@@@@oooo........    ",
"    ........oooo@@@@....****%%%%%%%%****....@@@@oooo........    ",
"        ........@@@@....++++%%%%%%%%++++....@@@@........        ",
"        ........@@@@....++++%%%%%%%%++++....@@@@........        ",
"        ........@@@@....++++%%%%%%%%++++....@@@@........        ",
"        ........@@@@....++++%%%%%%%%++++....@@@@........        ",
"    OOOO====OOOOooooXXXX================XXXXooooOOOO====OOOO    ",
"    OOOO====OOOOooooXXXX================XXXXooooOOOO====OOOO    ",
"    OOOO====OOOOooooXXXX================XXXXooooOOOO====OOOO    ",
"    OOOO====OOOOooooXXXX================XXXXooooOOOO====OOOO    ",
"....====OOOO....########OOOO========OOOO########....OOOO====....",
"....====OOOO....########OOOO========OOOO########....OOOO====....",
"....====OOOO....########OOOO========OOOO########....OOOO====....",
"....====OOOO....########OOOO========OOOO########....OOOO====....",
"....OOOO    XXXX====&&&&####........####&&&&====XXXX    OOOO....",
"....OOOO    XXXX====&&&&####........####&&&&====XXXX    OOOO....",
"....OOOO    XXXX====&&&&####........####&&&&====XXXX    OOOO....",
"....OOOO    XXXX====&&&&####........####&&&&====XXXX    OOOO....",
"    ========    ----&&&&....        ....&&&&----    ========    ",
"    ========    ----&&&&....        ....&&&&----    ========    ",
"    ========    ----&&&&....        ....&&&&----    ========    ",
"    ========    ----&&&&....        ....&&&&----    ========    ",
"                &&&&&&&&                &&&&&&&&                ",
"                &&&&&&&&                &&&&&&&&                ",
"                &&&&&&&&                &&&&&&&&                ",
"                &&&&&&&&                &&&&&&&&                ",
"            XXXX&&&&....                ....&&&&XXXX            ",
"            XXXX&&&&....                ....&&&&XXXX            ",
"            XXXX&&&&....                ....&&&&XXXX            ",
"            XXXX&&&&....                ....&&&&XXXX            "
};
