/* XPM */
static char *bf2a7811eb9a4e4efe601298dba5f36fYt8WapvOfi0vxUkR[] = {
/* columns rows colors chars-per-pixel */
"64 64 2 1 ",
"  c #328464",
". c #5DAF8D",
/* pixels */
"................................................................",
"................................................................",
"................................................................",
"................................................................",
"................................................................",
"................................................................",
"................................................................",
"................................................................",
"................................    ........    ........    ....",
"................................    ........    ........    ....",
"................................    ........    ........    ....",
"................................    ........    ........    ....",
"....................................    ....    ....    ........",
"....................................    ....    ....    ........",
"....................................    ....    ....    ........",
"....................................    ....    ....    ........",
"................................................................",
"................................................................",
"................................................................",
"................................................................",
"................................................................",
"................................................................",
"................................................................",
"................................................................",
"................................................................",
"................................................................",
"................................................................",
"................................................................",
"....    ........    ........    ................................",
"....    ........    ........    ................................",
"....    ........    ........    ................................",
"....    ........    ........    ................................",
"........    ....    ....    ....................................",
"........    ....    ....    ....................................",
"........    ....    ....    ....................................",
"........    ....    ....    ....................................",
"................................................................",
"................................................................",
"................................................................",
"................................................................",
"................................    ........    ........    ....",
"................................    ........    ........    ....",
"................................    ........    ........    ....",
"................................    ........    ........    ....",
"....................................    ....    ....    ........",
"....................................    ....    ....    ........",
"....................................    ....    ....    ........",
"....................................    ....    ....    ........",
"................................................................",
"................................................................",
"................................................................",
"................................................................",
"    ........    ........    ....................................",
"    ........    ........    ....................................",
"    ........    ........    ....................................",
"    ........    ........    ....................................",
"....    ....    ....    ........................................",
"....    ....    ....    ........................................",
"....    ....    ....    ........................................",
"....    ....    ....    ........................................",
"................................................................",
"................................................................",
"................................................................",
"................................................................"
};
