/* XPM */
static char *_ecf2ac6ec504571ad14e8597ffadb0eLl2pSBk0Pp2ObR0p[] = {
/* columns rows colors chars-per-pixel */
"64 64 10 1 ",
"  c None",
". c #122020",
"X c #423934",
"o c #24523B",
"O c #1A7A3E",
"+ c #2D6B47",
"@ c #5A4E44",
"# c #796755",
"$ c #14A02E",
"% c #59C135",
/* pixels */
"                            oooooooo                            ",
"                            oooooooo                            ",
"                            oooooooo                            ",
"                            oooooooo                            ",
"                        oooo%%%%$$$$oooo                        ",
"                        oooo%%%%$$$$oooo                        ",
"                        oooo%%%%$$$$oooo                        ",
"                        oooo%%%%$$$$oooo                        ",
"            oooooooooooooooo%%%%$$$$oooooooooooooooo            ",
"            oooooooooooooooo%%%%$$$$oooooooooooooooo            ",
"            oooooooooooooooo%%%%$$$$oooooooooooooooo            ",
"            oooooooooooooooo%%%%$$$$oooooooooooooooo            ",
"            oooo$$$$%%%%oooo%%%%OOOOoooo$$$$OOOOoooo            ",
"            oooo$$$$%%%%oooo%%%%OOOOoooo$$$$OOOOoooo            ",
"            oooo$$$$%%%%oooo%%%%OOOOoooo$$$$OOOOoooo            ",
"            oooo$$$$%%%%oooo%%%%OOOOoooo$$$$OOOOoooo            ",
"            oooo%%%%$$$$oooo$$$$%%%%ooooOOOO$$$$oooo            ",
"            oooo%%%%$$$$oooo$$$$%%%%ooooOOOO$$$$oooo            ",
"            oooo%%%%$$$$oooo$$$$%%%%ooooOOOO$$$$oooo            ",
"            oooo%%%%$$$$oooo$$$$%%%%ooooOOOO$$$$oooo            ",
"        oooooooooooooooo$$$$%%%%OOOOOOOOoooooooooooooooo        ",
"        oooooooooooooooo$$$$%%%%OOOOOOOOoooooooooooooooo        ",
"        oooooooooooooooo$$$$%%%%OOOOOOOOoooooooooooooooo        ",
"        oooooooooooooooo$$$$%%%%OOOOOOOOoooooooooooooooo        ",
"    oooo%%%%%%%%$$$$OOOO%%%%OOOO%%%%$$$$OOOO$$$$%%%%%%%%oooo    ",
"    oooo%%%%%%%%$$$$OOOO%%%%OOOO%%%%$$$$OOOO$$$$%%%%%%%%oooo    ",
"    oooo%%%%%%%%$$$$OOOO%%%%OOOO%%%%$$$$OOOO$$$$%%%%%%%%oooo    ",
"    oooo%%%%%%%%$$$$OOOO%%%%OOOO%%%%$$$$OOOO$$$$%%%%%%%%oooo    ",
"    oooo%%%%$$$$%%%%OOOO$$$$$$$$$$$$OOOOOOOO%%%%$$$$%%%%oooo    ",
"    oooo%%%%$$$$%%%%OOOO$$$$$$$$$$$$OOOOOOOO%%%%$$$$%%%%oooo    ",
"    oooo%%%%$$$$%%%%OOOO$$$$$$$$$$$$OOOOOOOO%%%%$$$$%%%%oooo    ",
"    oooo%%%%$$$$%%%%OOOO$$$$$$$$$$$$OOOOOOOO%%%%$$$$%%%%oooo    ",
"    ............oooooooo....OOOOOOOO....oooooooo............    ",
"    ............oooooooo....OOOOOOOO....oooooooo............    ",
"    ............oooooooo....OOOOOOOO....oooooooo............    ",
"    ............oooooooo....OOOOOOOO....oooooooo............    ",
"        ....oooo....ooooOOOOOOOOooooOOOOoooo....oooo....        ",
"        ....oooo....ooooOOOOOOOOooooOOOOoooo....oooo....        ",
"        ....oooo....ooooOOOOOOOOooooOOOOoooo....oooo....        ",
"        ....oooo....ooooOOOOOOOOooooOOOOoooo....oooo....        ",
"    ++++....oooooooo....OOOOOOOOooooOOOO....oooooooo....++++    ",
"    ++++....oooooooo....OOOOOOOOooooOOOO....oooooooo....++++    ",
"    ++++....oooooooo....OOOOOOOOooooOOOO....oooooooo....++++    ",
"    ++++....oooooooo....OOOOOOOOooooOOOO....oooooooo....++++    ",
"++++++++....................ooooOOOOOOOO................++++++++",
"++++++++....................ooooOOOOOOOO................++++++++",
"++++++++....................ooooOOOOOOOO................++++++++",
"++++++++....................ooooOOOOOOOO................++++++++",
"++++++++++++++++++++XXXX....OOOOOOOO....XXXX++++++++++++++++++++",
"++++++++++++++++++++XXXX....OOOOOOOO....XXXX++++++++++++++++++++",
"++++++++++++++++++++XXXX....OOOOOOOO....XXXX++++++++++++++++++++",
"++++++++++++++++++++XXXX....OOOOOOOO....XXXX++++++++++++++++++++",
"++++++++++++++++++++XXXX@@@@........@@@@XXXX++++++++++++++++++++",
"++++++++++++++++++++XXXX@@@@........@@@@XXXX++++++++++++++++++++",
"++++++++++++++++++++XXXX@@@@........@@@@XXXX++++++++++++++++++++",
"++++++++++++++++++++XXXX@@@@........@@@@XXXX++++++++++++++++++++",
"            ++++++++XXXX################XXXX++++++++            ",
"            ++++++++XXXX################XXXX++++++++            ",
"            ++++++++XXXX################XXXX++++++++            ",
"            ++++++++XXXX################XXXX++++++++            ",
"                ++++++++XXXXXXXXXXXXXXXX++++++++                ",
"                ++++++++XXXXXXXXXXXXXXXX++++++++                ",
"                ++++++++XXXXXXXXXXXXXXXX++++++++                ",
"                ++++++++XXXXXXXXXXXXXXXX++++++++                "
};
